<?xml version="1.0" encoding="UTF-8" standalone="no"?>
<!-- Uploaded to: SVG Repo, www.svgrepo.com, Generator: SVG Repo Mixer Tools -->

<svg
   width="625.61407"
   height="655.86713"
   viewBox="0 0 18.768422 19.676014"
   version="1.1"
   id="svg2"
   sodipodi:docname="moon.svg"
   inkscape:version="1.4.2 (f4327f4, 2025-05-13)"
   xmlns:inkscape="http://www.inkscape.org/namespaces/inkscape"
   xmlns:sodipodi="http://sodipodi.sourceforge.net/DTD/sodipodi-0.dtd"
   xmlns="http://www.w3.org/2000/svg"
   xmlns:svg="http://www.w3.org/2000/svg">
  <defs
     id="defs2" />
  <sodipodi:namedview
     id="namedview2"
     pagecolor="#ffffff"
     bordercolor="#000000"
     borderopacity="0.25"
     inkscape:showpageshadow="2"
     inkscape:pageopacity="0.0"
     inkscape:pagecheckerboard="0"
     inkscape:deskcolor="#d1d1d1"
     inkscape:zoom="0.46580659"
     inkscape:cx="355.29768"
     inkscape:cy="319.87525"
     inkscape:window-width="1280"
     inkscape:window-height="730"
     inkscape:window-x="-6"
     inkscape:window-y="-6"
     inkscape:window-maximized="1"
     inkscape:current-layer="svg2"
     showguides="true">
    <sodipodi:guide
       position="10.2776,12.917169"
       orientation="0,-1"
       id="guide1"
       inkscape:locked="false" />
  </sodipodi:namedview>
  <path
     d="M 9.7994222,19.676 C 4.6300972,19.677806 0.34903342,15.662586 0.01988119,10.503752 -0.30927104,5.3449191 3.4267847,0.81817756 8.5544222,0.163 l 1.286,-0.163 -0.843,0.984 C 6.6820352,3.6720908 6.4840752,6.9520785 7.6438152,9.6304633 9.1668016,13.147755 13.031182,15.627564 17.516422,14.367 l 1.252,-0.347 -0.696,1.096 c -1.788723,2.842904 -4.91419,4.565632 -8.2729998,4.56 z M 6.808851,1.857408 c -4.5571049,3.2627765 -6.83933996,7.2473358 -3.6670661,12.233894 3.1722738,4.986557 8.1266081,4.44856 11.8783311,2.18981 -0.39055,0.05162 -0.604653,0.07309 -0.998599,0.07342 C 6.9148373,15.974109 2.8466798,7.8219039 6.808851,1.857408 Z"
     id="path1"
     style="stroke-width:0.03;stroke-dasharray:none;stroke:none;stroke-opacity:1;fill:#ffffff;fill-opacity:1"
     sodipodi:nodetypes="cscccscccccsccc" />
</svg>
