<?xml version="1.0" encoding="UTF-8" standalone="no"?>
<svg
   width="17.6"
   height="17.6"
   viewBox="0 0 17.6 17.6"
   version="1.1"
   id="svg1"
   sodipodi:docname="sun2.svg"
   inkscape:version="1.4.2 (f4327f4, 2025-05-13)"
   xmlns:inkscape="http://www.inkscape.org/namespaces/inkscape"
   xmlns:sodipodi="http://sodipodi.sourceforge.net/DTD/sodipodi-0.dtd"
   xmlns="http://www.w3.org/2000/svg"
   xmlns:svg="http://www.w3.org/2000/svg">
  <defs
     id="defs1" />
  <sodipodi:namedview
     id="namedview1"
     pagecolor="#ffffff"
     bordercolor="#000000"
     borderopacity="0.25"
     inkscape:showpageshadow="2"
     inkscape:pageopacity="0.0"
     inkscape:pagecheckerboard="0"
     inkscape:deskcolor="#d1d1d1"
     inkscape:zoom="15.526886"
     inkscape:cx="10.530122"
     inkscape:cy="8.5657871"
     inkscape:window-width="1280"
     inkscape:window-height="730"
     inkscape:window-x="-6"
     inkscape:window-y="-6"
     inkscape:window-maximized="1"
     inkscape:current-layer="svg1" />
  <style
     type="text/css"
     id="style1">* { fill: #fff }</style>
  <path
     d="m 14.9,2.9 c 0,0.3 -0.1,0.6 -0.3,0.9 L 13.2,5.2 12.3,4.4 14.5,2.2 c 0.3,0.1 0.4,0.4 0.4,0.7 z m -0.5,5.3 h 3.2 c 0,0.3 -0.1,0.6 -0.4,0.9 -0.3,0.3 -0.5,0.4 -0.8,0.4 h -2 z M 8.2,3.2 V 0 c 0.3,0 0.6,0.1 0.9,0.4 0.3,0.3 0.4,0.5 0.4,0.8 v 2 z m 6.4,11.7 c -0.3,0 -0.6,-0.1 -0.8,-0.3 l -1.4,-1.4 0.8,-0.8 2.2,2.2 c -0.2,0.2 -0.5,0.3 -0.8,0.3 z M 3,2.7 C 3.3,2.7 3.6,2.8 3.8,3 L 5.2,4.4 4.4,5.3 2.2,3 C 2.4,2.8 2.7,2.7 3,2.7 Z m 5.2,11.7 h 1.2 v 3.2 C 9.1,17.6 8.8,17.5 8.5,17.2 8.2,16.9 8.1,16.7 8.1,16.4 Z m -7,-6.2 h 2 V 9.4 H 0 C 0,9.1 0.1,8.8 0.4,8.5 0.7,8.2 0.9,8.2 1.2,8.2 Z M 3,13.8 4.4,12.4 5.2,13.2 3,15.4 C 2.8,15.2 2.7,14.9 2.7,14.6 2.7,14.3 2.8,14 3,13.8 Z"
     id="path1"
     style="fill:#000000;fill-opacity:1" />
  <circle
     cx="8.8000002"
     cy="8.8000002"
     r="4"
     id="circle1"
     style="fill:#000000;fill-opacity:1" />
</svg>
